<?xml version="1.0" standalone="no"?>
<!DOCTYPE svg PUBLIC "-//W3C//DTD SVG 20010904//EN"
 "http://www.w3.org/TR/2001/REC-SVG-20010904/DTD/svg10.dtd">
<svg version="1.0" xmlns="http://www.w3.org/2000/svg"
 width="500.000000pt" height="500.000000pt" viewBox="0 0 500.000000 500.000000"
 preserveAspectRatio="xMidYMid meet">
<metadata>
Created by potrace 1.14, written by Peter Selinger 2001-2017
</metadata>
<g transform="translate(0.000000,500.000000) scale(0.100000,-0.100000)"
fill="#000000" stroke="none">
<path d="M0 2500 l0 -2500 2500 0 2500 0 0 2500 0 2500 -2500 0 -2500 0 0
-2500z m1880 440 c0 -38 2 -70 3 -70 2 0 18 7 36 16 45 22 110 12 144 -24 39
-42 47 -91 47 -297 -1 -152 -4 -200 -18 -239 -22 -63 -58 -91 -119 -91 -37 0
-49 5 -69 28 l-24 28 0 -25 c0 -26 -1 -26 -80 -26 l-80 0 0 385 0 385 80 0 80
0 0 -70z m1330 -5 c0 -58 2 -65 20 -65 18 0 20 -7 20 -60 0 -53 -2 -60 -20
-60 -19 0 -20 -7 -20 -200 0 -193 1 -200 20 -200 18 0 20 -7 20 -54 l0 -54
-50 -7 c-59 -8 -115 8 -133 38 -8 15 -13 92 -15 250 -3 216 -5 227 -23 227
-17 0 -19 8 -19 60 0 53 2 60 20 60 18 0 20 7 20 65 l0 65 80 0 80 0 0 -65z
m-1874 -28 c48 -24 134 -100 134 -118 0 -24 -26 -16 -55 18 -18 21 -57 52 -86
68 -49 27 -62 30 -149 30 -113 0 -163 -19 -238 -89 -98 -91 -129 -221 -87
-353 20 -62 37 -84 32 -41 -1 15 8 27 30 40 l33 20 30 -34 c17 -18 28 -39 25
-46 -3 -7 0 -10 5 -7 9 6 14 -8 11 -28 -1 -5 4 -5 10 -1 9 5 10 2 6 -9 -3 -9
-1 -19 5 -23 7 -5 8 -2 3 6 -6 9 -4 11 4 6 7 -5 10 -14 8 -21 -3 -7 5 -30 19
-51 29 -48 32 -35 3 15 -12 21 -14 28 -4 16 18 -21 53 -85 40 -73 -4 4 -22 -4
-40 -17 -39 -31 -48 -31 -69 -2 -9 13 -15 16 -13 7 1 -8 -4 -15 -12 -15 -14 0
-119 159 -120 182 -1 7 -9 22 -18 33 -44 51 -55 172 -24 263 30 86 75 143 150
192 87 57 118 65 226 61 74 -2 99 -7 141 -29z m1125 -34 c64 -37 74 -61 77
-199 l4 -124 -117 0 -118 0 5 -85 c5 -89 19 -122 50 -110 19 8 28 36 28 93 l0
42 76 0 76 0 -4 -67 c-8 -135 -60 -187 -188 -188 -61 0 -82 4 -111 23 -66 41
-74 70 -77 304 -3 190 -2 210 17 246 33 65 97 94 193 88 32 -2 72 -12 89 -23z
m430 1 c18 -11 41 -32 53 -47 20 -27 21 -42 24 -308 l3 -279 -81 0 c-80 0 -80
0 -80 26 l0 27 -23 -25 c-60 -65 -153 -41 -187 47 -7 17 -12 66 -12 111 0 134
34 175 185 224 36 11 37 13 37 60 0 50 -18 77 -45 66 -9 -3 -15 -18 -15 -41
l0 -35 -81 0 -80 0 7 48 c7 52 25 92 48 111 52 43 185 51 247 15z m-1431 -120
c0 33 29 1 85 -93 30 -51 55 -98 55 -103 0 -6 -9 -8 -20 -5 -16 4 -18 2 -10
-13 6 -10 10 -21 10 -24 0 -7 -56 -36 -69 -36 -18 0 -158 236 -147 247 3 4 18
14 33 23 25 16 30 16 46 2 15 -14 17 -13 17 2z m125 -39 c17 -16 25 -35 25
-59 0 -38 -17 -57 -31 -35 -5 8 -23 38 -40 67 l-31 52 27 0 c14 0 37 -11 50
-25z m-171 -142 c21 -36 31 -62 26 -67 -6 -5 -11 -8 -13 -5 -21 27 -67 108
-67 117 0 26 20 9 54 -45z m-50 -28 c26 -41 44 -80 41 -86 -7 -10 -105 132
-105 152 0 24 20 3 64 -66z m-52 -18 c54 -83 65 -107 49 -107 -13 0 -111 146
-111 166 0 28 16 12 62 -59z m-32 -42 c18 -34 3 -46 -21 -16 -22 27 -24 41 -6
41 8 0 20 -11 27 -25z m-146 -69 c72 -112 78 -124 66 -131 -9 -6 -140 185
-140 205 0 27 25 2 74 -74z m55 13 c31 -50 38 -69 24 -69 -10 0 -73 96 -73
110 0 23 19 7 49 -41z m45 29 c20 -27 20 -38 3 -38 -11 0 -37 39 -37 55 0 13
21 2 34 -17z m-139 -87 c48 -74 51 -81 35 -81 -13 0 -100 132 -93 143 8 13 13
8 58 -62z m-191 -82 c20 -33 34 -65 31 -69 -11 -18 -67 13 -82 45 -16 33 -12
85 6 85 5 0 25 -27 45 -61z"/>
<path d="M1892 2768 c-8 -8 -12 -67 -12 -199 0 -157 3 -190 16 -203 8 -9 17
-16 19 -16 2 0 11 7 19 16 13 13 16 45 16 195 0 105 -4 188 -10 200 -12 22
-30 25 -48 7z"/>
<path d="M2325 2770 c-4 -7 -10 -41 -13 -76 l-5 -64 42 0 41 0 -1 48 c-1 68
-12 97 -36 100 -12 2 -24 -2 -28 -8z"/>
<path d="M2771 2561 c-24 -24 -35 -77 -28 -137 6 -56 22 -77 48 -63 17 9 19
22 19 114 0 109 -5 120 -39 86z"/>
</g>
</svg>
